<?xml version="1.0" encoding="utf-8"?>
<!-- Generator: Adobe Illustrator 22.1.0, SVG Export Plug-In . SVG Version: 6.00 Build 0)  -->
<svg version="1.1" id="图层_1" xmlns="http://www.w3.org/2000/svg" xmlns:xlink="http://www.w3.org/1999/xlink" x="0px" y="0px"
	 viewBox="0 0 30 30" style="enable-background:new 0 0 30 30;" xml:space="preserve">
<style type="text/css">
	.st0{fill:#FFBF12;}
	.st1{fill:#FFFFFF;}
</style>
<polygon class="st0" points="15,3 12,8 9,10 4,11 2,11 3,13 6,17 8,19 8,23 6,25 7,27 11,25 15,23 18,25 22,26 23,27 23,21 23,18 
	26,15 27,12 28,11 22,10 20,10 19,7 16,3 15,2 "/>
<path class="st1" d="M13.2,1.4L9.6,8.5L1.8,9.7C0.6,9.8-0.1,10.9,0,12c0.1,0.4,0.3,0.9,0.6,1.2l5.7,5.6L5,26.6
	c-0.1,0.4,0,0.9,0.2,1.3L5.3,28c0.6,0.9,1.7,1.2,2.7,0.7L15,25l7.1,3.7c1,0.5,2.2,0.1,2.8-0.9c0.2-0.4,0.3-0.9,0.2-1.3l-1.3-7.9
	l5.7-5.6c0.8-0.8,0.8-2.1,0-2.9c-0.3-0.3-0.7-0.5-1.2-0.6l-7.9-1.1l-3.5-7.1c-0.5-1-1.7-1.4-2.7-0.9C13.7,0.6,13.4,1,13.2,1.4
	L13.2,1.4z M15,3.8l2.9,5.9L18,9.9c0.4,0.7,1.1,1.2,2,1.3l6.5,0.9l-4.7,4.6l-0.2,0.2c-0.5,0.6-0.8,1.4-0.6,2.3l1.1,6.5l-6.5-3.4
	l-0.2-0.1c-0.4-0.1-0.8-0.1-1.1,0.1l-6.5,3.4L9,19.2L9,19c0.1-0.8-0.2-1.6-0.8-2.2l-4.7-4.6l6.5-0.9c0.9-0.1,1.7-0.7,2.1-1.5L15,3.8
	z"/>
</svg>
