<?xml version="1.0" encoding="utf-8"?>
<!-- Generator: Adobe Illustrator 22.1.0, SVG Export Plug-In . SVG Version: 6.00 Build 0)  -->
<svg version="1.1" id="图层_1" xmlns="http://www.w3.org/2000/svg" xmlns:xlink="http://www.w3.org/1999/xlink" x="0px" y="0px"
	 viewBox="0 0 30 30" style="enable-background:new 0 0 30 30;" xml:space="preserve">
<style type="text/css">
	.st0{fill:#F8536A;}
	.st1{fill:#FFFFFF;}
</style>
<path class="st0" d="M15,5l2-2h4l6,2l2,8l-8,10l-6,5l-1-1l-4-3l-3-3l-3-4l-2-3v-3l1-4l1-2l2-1h4L15,5z"/>
<path class="st1" d="M15,29.3c-0.7,0-1.4-0.2-2-0.7c-2.9-2.2-8-6.3-10.5-10.2c-1.6-2.1-2.4-4.7-2.5-7.3C-0.2,5.8,4,1.2,9.3,1
	c0.8,0,1.6,0.1,2.3,0.3c1.3,0.4,2.4,1.1,3.4,2C16.5,1.9,18.6,1,20.7,1c5.4,0.2,9.5,4.8,9.3,10.2c-0.1,2.6-0.9,5.2-2.5,7.3
	c-2.5,3.9-7.6,8-10.4,10.1L17,28.7C16.4,29.1,15.7,29.4,15,29.3L15,29.3z M9.3,4.2c-3.6,0.2-6.4,3.4-6.2,7c0.1,2,0.8,3.9,2,5.5
	c2.3,3.7,7.5,7.7,9.6,9.3l0.2,0.1l0.3-0.2c3.7-2.5,6.9-5.7,9.6-9.3c1.2-1.6,1.9-3.5,2-5.5c0.2-3.6-2.5-6.7-6.1-7
	c-1.8,0-3.5,1-4.4,2.5L15,8.5l-1.3-1.8l-0.3-0.4c-0.7-0.9-1.6-1.6-2.7-1.9C10.3,4.3,9.8,4.2,9.3,4.2z"/>
</svg>
