<?xml version="1.0" standalone="no"?><!DOCTYPE svg PUBLIC "-//W3C//DTD SVG 1.1//EN" "http://www.w3.org/Graphics/SVG/1.1/DTD/svg11.dtd"><svg t="1758999250938" class="icon" viewBox="0 0 1183 1024" version="1.1" xmlns="http://www.w3.org/2000/svg" p-id="21685" xmlns:xlink="http://www.w3.org/1999/xlink" width="231.0546875" height="200"><path d="M1024.99302 212.709541c-11.336432 7.3557-27.60551 14.192174-34.441985 21.894025-2.596129 2.596129-3.980732 5.365334-3.374968 8.221077v29.336263l-8.567227 28.730499-8.567228 28.470887-9.346066 31.326629-19.384433 64.03786-18.77867 63.172484L908.426806 535.321896c0 7.3557-0.259613 14.797938-0.865376 21.894026-1.990366 27.345897-7.701851 53.480267-16.788304 77.970421-5.365334 15.057551-11.942196 29.595876-19.903659 43.268825-2.855742 5.365334-6.230711 10.817206-9.692217 15.922927-11.336432 17.913293-25.009381 34.441984-40.066931 48.893772-11.682583 11.682583-24.490155 22.499789-38.422717 31.586242h-0.259612c-2.249979 1.990366-4.846108 3.721119-7.701851 5.105721-8.82684 5.971098-18.172906 11.076819-27.865123 15.663314-6.576861 3.374968-13.067185 6.230711-19.903659 8.826841-1.384602 0.865376-3.115355 1.384602-4.586496 1.990366-16.18254 7.701851-34.96121 12.807572-53.73988 15.403701-1.124989 0.259613-1.990366 0.259613-3.115355 0.605764-11.336432 1.990366-22.499789 3.721119-33.836221 4.586495-5.105721 0.605764-10.557593 0.865376-15.663314 0.865376l-20.163273-1.124989-97.268317-5.105721c0-0.259613-0.259613 0-0.259613 0l-48.893772-2.59613c-3.721119 0-7.701851 0-11.336432-0.259613-15.403702-0.605764-30.115102-2.249979-44.913039-5.365334h-0.259613c-26.999746-5.105721-52.874504-14.192174-77.105046-26.48052-13.326798-6.836474-26.480521-14.538325-38.682329-23.365166-5.105721-3.721119-9.95183-7.701851-14.797938-11.942195-13.672949-11.336432-25.874757-23.624778-37.297726-36.0862-1.730753-1.730753-3.115355-3.374968-4.586496-5.105721-1.730753-1.730753-3.374968-3.721119-4.846108-5.365334-10.817206-13.672949-19.903659-27.60551-27.345897-42.403448-6.836474-13.067185-12.201809-26.999746-16.528691-42.403448-1.730753-5.365334-3.115355-10.557593-4.240345-16.182541-0.259613-0.259613-0.605764-0.865376-0.605763-1.384602-2.855742-11.682583-5.365334-23.884391-6.836475-36.0862-1.730753-9.346066-2.596129-18.77867-2.596129-28.470886-0.605764-3.721119-0.605764-7.701851-0.605764-11.336432l54.345644-83.94152 53.220654-81.951153 24.144004-37.297727 21.894025-33.576608 7.3557-11.682582V248.882278c0.605764-6.576861 0.865376-13.326798 0.605764-19.644046-0.259613-19.903659-4.240345-39.288093-10.817206-57.720612-6.230711-19.644046-15.057551-38.076566-24.144004-55.21102-10.817206-19.644046-22.153638-37.297727-31.586242-53.220654-13.932561-23.365165-23.624778-42.403448-21.028649-55.730246 20.509423-4.846108 42.057297-7.3557 64.03786-7.3557h455.101496c118.90273 0 221.276768 73.98969 263.680217 178.007944 4.499958 11.163357 8.48069 22.759402 11.336432 34.701597z m0 0" fill="#304FFE" p-id="21686"></path><path d="M1034.425623 284.449252v7.701851l-39.288092 22.759402-25.009381 14.538325-27.60551 15.922927-55.21102 32.105468-54.086031 31.326629-55.124482 31.845854-21.894025 12.807572c0 13.672949-3.374968 26.13437-9.692217 37.55734-8.82684 16.528691-23.624778 30.115102-42.403448 41.797685-19.038283 11.682583-42.403448 21.028649-68.537818 27.865123 0 0 0-0.259613-0.259613 0-101.249049 26.13437-239.449675 14.192174-306.60289-35.826587-18.77867-13.932561-31.845855-30.980478-37.55734-50.624525-1.730753-6.576861-2.596129-13.672949-2.596129-20.769036V248.882278c0.259613-4.240345-2.596129-8.567227-7.701851-12.807572-15.403702-12.201809-51.489901-23.884391-91.902983-35.566973-31.586242-8.82684-65.422463-17.65368-93.893349-26.13437-22.499789-6.836474-41.538071-13.672949-52.874504-20.163273 5.105721-9.95183 11.076819-19.903659 17.394068-29.336263C99.386326 66.547452 160.222294 23.624778 230.837015 7.442238c20.509423-4.846108 42.057297-7.3557 64.03786-7.3557h307.208654c152.73895 26.740134 293.535705 89.047241 411.573059 178.007944 4.586495 11.076819 8.567227 22.759402 11.336432 34.701597 5.105721 18.77867 8.221077 38.076566 9.086453 58.326375 0.346151 4.153807 0.346151 8.740303 0.34615 13.326798z m0 0" fill="#4928F4" p-id="21687"></path><path d="M1034.425623 284.449252v125.479591l-6.23071 19.384433-21.3748 66.28784-22.153638 68.278205-11.682582 36.43235-10.817207 33.83622-10.557593 32.105468-10.211442 31.845855-5.365335 16.788304-7.096087 22.153638c0 21.634412-0.605764 40.672695-1.990366 56.855235-0.259613 1.730753-0.605764 3.374968-0.605763 5.105722-1.730753 15.057551-3.980732 27.865123-7.701851 38.682329-0.259613 1.730753-0.865376 3.374968-1.384602 4.846108-7.3557 20.509423-18.519057 33.576608-34.961211 42.057298-3.980732 2.249979-8.567227 3.980732-13.326798 5.711484-15.057551 5.105721-34.095834 7.701851-57.460998 9.086454-17.047917 1.124989-36.691963 1.384602-58.845602 1.384602h-19.644046l-33.836221-1.384602-5.971098-0.259613-61.701343-2.59613-62.56672-2.596129-206.219218-8.567228-53.480267-2.249978h-7.3557c-22.153638-0.259613-41.278459-1.730753-57.720612-3.980732-23.884391-3.721119-42.403448-9.95183-56.336009-19.384434-19.903659-12.807572-31.586242-31.586242-38.422717-57.720612-1.730753-6.230711-3.115355-12.807572-3.980731-19.903659-2.855742-16.528691-4.240345-35.566974-5.105722-56.855235 0-4.240345 0-8.567227-0.259613-13.067185-0.259613-0.259613 0-0.259613 0-0.259613V695.416547c-0.259613-8.221077-0.259613-16.788304-0.259613-25.615144l1.384603-45.778416 0.865376-32.711232 1.12499-38.076565v-5.365335l1.990366-70.008958 1.990366-70.008958 1.990366-65.682075 1.730752-64.557086 0.605764-17.047917c0-8.82684-29.855489-13.932561-63.172484-18.172906-26.480521-3.374968-55.470633-6.576861-72.778162-10.557593 1.384602-6.576861 2.855742-13.067185 4.586495-19.384434 5.105721-20.509423 12.807572-39.807319 22.499789-58.326375 5.105721-9.95183 11.076819-19.903659 17.394067-29.336263C121.453427 97.787543 185.404749 76.672357 252.298352 63.085946c58.585988-12.201809 119.768106-18.77867 182.854052-18.77867 209.334573 0 402.746218 70.787797 555.744782 190.29629 14.797938 11.336432 29.336263 23.624778 43.528437 36.432351v13.413335z m0 0" fill="#6200EA" p-id="21688"></path><path d="M1034.425623 351.862081v129.114172l-15.663314 30.115102-29.855489 58.326375-15.922927 30.720865-14.538326 28.124736-6.23071 12.201809c0 8.82684 0 17.394067-0.605764 25.615144 0 12.201809-0.605764 23.884391-1.384602 34.701597-1.124989 12.807572-2.855742 24.490155-4.586496 35.307361-4.240345 22.499789-10.211443 41.797684-18.778669 57.720612-1.124989 1.990366-2.249979 3.980732-3.374969 5.711485-3.115355 5.105721-6.836474 9.95183-10.817206 14.538325-5.105721 6.230711-10.817206 11.682583-17.394067 16.18254-9.692217 7.3557-21.028649 13.326798-34.095834 17.913293-16.18254 5.971098-34.96121 9.95183-57.201386 12.201809-14.538325 1.384602-30.461252 2.249979-47.768782 2.249979l-11.942196 0.605763-59.191752 3.374969h-0.259612l-62.826334 3.721118-64.03786 3.721119-88.181864 5.105722-107.220147 6.23071-15.663315 0.865377c-14.538325 0-28.124736-0.865376-41.278458-2.59613-1.384602-0.259613-2.596129-0.605764-3.980732-0.605763-19.384433-3.115355-36.951576-8.221077-52.874504-15.403702-19.384433-8.567227-36.0862-19.903659-50.364911-33.576607-12.547959-12.201809-23.365165-26.13437-32.105468-41.797685-1.990366-3.721119-3.980732-7.096087-5.711485-11.076819-8.567227-16.788304-15.317164-35.566974-20.509423-56.076396-0.865376-3.374968-1.730753-7.096087-2.249978-10.817207-1.730753-6.576861-3.115355-13.326798-3.980732-20.509422-3.115355-18.172906-4.846108-37.55734-5.711485-57.720612v-0.259613c-0.259613-8.221077-0.605764-16.18254-0.605764-24.749768L113.578501 577.725344l-1.990366-5.105721-1.730753-4.240345-21.374799-50.884137-3.201893-8.134539-20.509423-49.239923-22.759402-54.864869h-0.259613l-23.019014-55.470633-8.221077-20.163272V284.362714c0-17.913293 1.730753-35.566974 4.846108-52.61489 1.384602-6.576861 2.855742-13.067185 4.586496-19.384433 24.144004-13.932561 49.499535-26.740134 75.374292-38.076566 59.105214-26.393983 122.537311-46.038029 188.219386-57.980225C332.432215 107.47976 383.316353 102.633652 434.806254 102.633652c207.94997 0 396.515507 75.374292 543.802586 198.257753 5.711485 4.586495 11.076819 9.086453 16.528691 13.932562 13.413336 11.682583 26.480521 23.884391 39.288092 37.038114z m0 0" fill="#673AB7" p-id="21689"></path><path d="M1034.425623 436.582439v146.162089l-16.18254 33.836221-30.720865 64.03786-0.259613 0.865376c0 12.201809-0.605764 23.365165-1.384603 33.316995-2.855742 32.711231-10.817206 53.480267-23.884391 66.287839-9.346066 9.692217-21.028649 15.057551-35.566974 17.913294-0.865376 0.259613-1.990366 0.259613-2.855742 0.605763-4.586495 0.865376-9.346066 1.384602-14.538325 1.384603-17.65368 1.730753-38.422716 0.605764-62.307107-1.12499-2.596129 0-5.365334-0.259613-8.221077-0.605763-17.394067-1.124989-35.826587-2.249979-56.336009-3.115356-11.076819-0.259613-22.759402-0.605764-34.701598-0.605763h-0.605763l-28.7305 2.249979h-0.259613l-64.557086 4.586495-73.643539 5.711485-10.817206 0.865376-86.191498 6.230711-44.653427 3.374968-44.047664 3.115356c-7.701851 0-15.057551 0-22.499788-0.259613 0 0-0.259613-0.259613-0.259613 0-32.105468-0.605764-60.835967-2.596129-86.451112-7.3557-23.624778-3.980732-44.393814-10.211443-62.047494-19.644047-18.172906-8.82684-33.316995-21.374799-45.518803-37.297726-11.682583-15.663314-20.163272-35.307361-25.615144-58.845602v-0.259613c-3.980732-19.038283-6.230711-41.278459-6.230711-66.287839l-4.240345-7.70185L115.741942 578.763796l-3.721119-6.230711-1.990366-3.980731-26.48052-46.903406-13.067185-23.624778-16.528691-29.336263-28.470887-50.884138-15.057551-26.740133v-104.710556c25.009381-16.528691 50.884138-30.980478 77.624271-44.047663 32.538156-16.528691 66.287839-30.54779 100.989437-41.797684 38.076566-12.547959 77.970422-22.499789 118.643116-28.990113 41.278459-6.836474 83.595369-10.211443 127.123807-10.211442 193.411645 0 370.900363 69.143582 507.716386 183.979041 6.230711 4.846108 12.201809 10.211443 18.172906 15.403702 23.884391 21.374799 46.643793 44.393814 67.412829 68.537818 2.336517 2.509592 4.586495 4.759571 6.317248 7.3557z m0 0" fill="#8E24AA" p-id="21690"></path><path d="M1034.425623 532.120003V737.819995c-6.836474-3.980732-16.18254-8.82684-27.865123-13.932562-6.230711-3.115355-13.326798-6.230711-20.769035-9.086453-10.817206-4.846108-22.499789-9.346066-35.566974-13.932561-2.855742-1.124989-5.711485-1.990366-8.82684-2.855743-5.105721-1.990366-10.557593-3.721119-15.922928-5.365334-16.788304-5.105721-35.307361-9.95183-54.605256-14.192174-7.3557-1.384602-15.057551-2.855742-22.759402-3.980732-24.749768-4.240345-51.230288-6.836474-78.74926-7.096087-2.249979-0.259613-4.846108-0.259613-7.096088-0.259613l-73.124313 0.605763-99.518296 0.605764h-0.259613l-213.055692 1.730753c-67.672441 0-109.210513 16.18254-134.219894 22.759401 0 0-0.259613 0-0.259612 0.259613-26.480521 6.836474-34.701597 2.596129-36.951577-43.78805-0.605764-12.807572-0.865376-29.336263-0.865376-49.499535l-15.922927-12.201809-27.865123-21.028648L143.174377 553.494803l-3.374969-2.59613L92.376777 514.812474 85.28069 509.360602l-14.797938-11.336432-27.345897-20.509423-32.711232-25.009381V355.842812c2.855742-2.249979 5.365334-4.240345 8.221077-5.971097 41.278459-28.470887 85.326122-52.614891 131.969915-72.258937 41.538071-17.65368 85.326122-31.586242 130.239161-41.538072 12.201809-2.596129 24.749768-5.105721 37.55734-6.836474 37.816953-6.576861 76.845432-9.692217 116.3066-9.692217 170.911857 0 327.97769 59.451365 452.505366 157.844672 18.77867 14.797938 36.951576 30.461252 54.086031 47.249556 23.365165 22.153638 45.25919 45.778416 65.422463 70.787797 3.980732 5.105721 7.961464 10.211443 11.942195 15.663315 5.451872 6.836474 10.644131 13.932561 15.749852 21.028648z m0 0" fill="#C2185B" p-id="21691"></path><path d="M1034.425623 646.176625v93.287585c0 18.519057-1.730753 36.691963-5.105721 54.345644-5.105721 26.13437-13.932561 51.230288-25.874757 74.508916-6.230711 1.384602-13.326798 1.384602-21.374799 0.259612-17.913293-3.115355-38.941942-12.547959-61.701344-24.749767-1.124989-0.259613-2.249979-0.865376-3.115355-1.384602-7.096087-3.721119-14.538325-7.701851-21.894026-12.201809-15.057551-8.221077-30.980478-17.394067-46.903405-25.874757-3.374968-1.730753-6.836474-3.374968-9.95183-5.105721-18.172906-9.346066-36.951576-17.913293-55.730246-24.490155h-0.259613c-3.980732-1.384602-8.221077-2.855742-12.547959-3.980732-16.18254-4.586495-32.711231-7.3557-48.634159-7.3557L689.919243 754.262148l-138.546776-40.066931h-0.259613l-85.066509-24.749768h-0.259613l-36.951576-10.817206c-106.960534 0-172.64261 45.518803-204.488465 28.124736-12.547959-6.576861-19.903659-23.019015-22.499788-55.470633-0.865376-9.086453-1.124989-19.384433-1.12499-31.326629l-33.316995-16.18254-1.384602-0.605764h-0.259613l-23.884391-11.942195L115.741942 578.763796l-1.990366-0.865376-4.846108-2.59613-55.730246-26.999746-42.663061-20.769036V430.005578c4.846108-4.240345 9.95183-8.221077 15.057551-12.201809 5.365334-4.240345 10.817206-8.221077 16.18254-12.547959h0.259613c33.576608-24.144004 69.143582-45.518803 106.960534-63.172484 44.047663-21.028649 91.037607-37.297727 139.671766-47.768782 7.096087-1.730753 14.538325-3.374968 21.894025-4.586495 40.413082-7.701851 81.951154-11.682583 124.268064-11.682583 149.883208 0 287.564607 48.634159 398.505873 130.585312 32.105468 23.884391 62.047494 50.364912 89.306854 79.095411 22.499789 23.624778 43.268824 49.239922 62.047494 75.980056 1.384602 1.990366 2.855742 3.980732 4.240345 5.711485 10.557593 15.317164 20.163272 30.980478 29.336263 47.249556 5.88456 9.605679 11.076819 19.557509 16.18254 29.509339z m0 0" fill="#D81B60" p-id="21692"></path><path d="M1029.319902 793.809854c-5.105721 26.13437-13.932561 51.230288-25.874757 74.508916-5.365334 10.557593-11.336432 20.509423-17.913293 30.115101-3.980732 5.971098-8.221077 11.682583-12.547959 17.047917-10.211443-3.980732-25.355531-9.692217-43.788051-15.922927v-0.259613c-15.490239-5.365334-31.153554-10.29798-46.903406-14.797938-4.846108-1.384602-9.692217-2.855742-14.797938-4.240345-20.163272-5.365334-41.278459-10.211443-61.701343-13.067185-17.047917-2.855742-33.836221-4.586495-49.499535-4.586495L743.139897 858.972703h-0.259613l-68.797431-19.903659-42.403448-12.201808-47.249556-13.672949h-0.259613l-15.317164-4.240345L383.143277 755.473675l-53.480267-15.403701-39.807318-9.346066-64.903237-15.403702-7.961464-1.990366h-0.259613l-65.162849-15.057551v-0.259613l-11.682583-2.596129-5.971098-1.384602-47.509169-11.07682-5.365334-1.384602-40.413082-33.316995-30.20164-25.268993V506.85101c10.557593-10.211443 21.374799-19.903659 32.711232-29.336263 3.374968-3.115355 7.096087-5.971098 10.817206-8.82684 3.374968-2.855742 7.096087-5.711485 10.817206-8.567228 25.874757-19.644046 53.220654-37.297727 82.210766-52.355277 36.951576-19.903659 76.239669-35.826587 117.43159-47.249556 7.961464-2.596129 15.922927-4.846108 24.144004-6.576862 46.643793-11.682583 95.537564-17.65368 146.162089-17.65368 127.123806 0 245.420772 38.422716 343.294853 104.104791 48.634159 32.711231 92.422209 71.999324 129.373786 116.652751 18.77867 22.499789 35.826587 46.038029 50.884137 71.133948 1.384602 1.990366 2.596129 3.721119 3.721119 5.711485 9.086453 15.057551 17.65368 30.720865 25.355531 46.643792 7.096087 14.192174 13.326798 28.470887 19.038283 43.268825 9.259528 22.845939 16.615229 46.124567 22.932477 70.008958z m0 0" fill="#F50057" p-id="21693"></path><path d="M985.445314 898.520409c-3.980732 5.971098-8.221077 11.682583-12.547959 17.047917-12.547959 15.663314-26.13437 29.855489-41.538072 42.403448-13.326798 11.076819-27.60551 21.028649-42.663061 29.595876-5.711485-1.384602-11.336432-3.115355-17.394067-5.365334-18.77867-6.576861-38.422716-17.394067-56.595622-28.7305-27.345897-17.394067-50.884138-36.0862-61.441731-44.653427-3.980732-3.374968-5.971098-5.105721-5.971098-5.105721l-48.374546-4.240345-5.971097-0.605763-62.566721-5.365335-64.816699-5.711484-95.883715-8.567228L317.807352 865.895715l-0.605763-0.259613-53.480267-25.874757-53.999493-26.13437-43.528438-21.028648-9.346066-4.586496-11.682582-5.711485-40.413082-19.644046-53.73988-25.874757-16.788304-8.221077-23.884391-7.3557V593.907885c13.326798-15.922927 27.60551-30.980478 42.663061-45.518804 9.692217-9.086453 19.903659-18.172906 30.461252-26.740133 1.730753-1.384602 3.374968-2.855742 5.105721-3.980732 1.124989-1.384602 2.596129-2.249979 3.721119-2.855742 16.788304-13.672949 34.441984-25.874757 52.614891-36.951577 21.028649-13.326798 43.268824-25.355531 66.287839-35.30736 24.749768-11.076819 50.624525-20.509423 77.364658-27.60551 46.38418-13.067185 95.537564-19.903659 146.162089-19.90366 116.046987 0 223.267134 35.307361 311.708612 95.883715a551.738088 551.738088 0 0 1 144.171723 144.171724c12.807572 18.172906 24.144004 37.55734 34.701597 57.460999 3.721119 7.3557 7.3557 14.797938 10.557593 22.153638 3.374968 7.096087 6.576861 14.192174 9.692217 21.374799 5.971098 14.797938 11.336432 29.595876 16.18254 44.91304 9.086453 28.470887 15.922927 57.460999 20.163272 87.5761 1.557678 10.038367 2.682667 19.990197 3.548044 29.942027z m0 0" fill="#FF1744" p-id="21694"></path><path d="M931.705434 950.529536c0 2.249979 0 4.846108-0.259613 7.3557-13.326798 11.076819-27.60551 21.028649-42.663061 29.595876-6.230711 3.374968-12.547959 6.836474-19.038283 9.692217-6.576861 3.115355-13.067185 5.971098-19.903659 8.567227-9.692217-5.105721-22.759402-11.336432-36.691963-17.394067-19.644046-8.82684-40.932308-16.788304-57.460999-19.384434-3.980732-0.865376-7.701851-1.124989-11.076819-1.124989l-46.643793-5.971098h-0.605763L639.294718 954.164117l-58.585988-7.70185-27.345897-3.374969L338.316775 915.222175c-13.932561 0-28.730499-0.865376-44.047663-2.855742-18.77867-1.730753-38.422716-4.586495-58.066763-8.567227-19.384433-3.374968-38.941942-7.961464-57.720611-12.807572-19.644046-4.586495-38.941942-9.95183-56.855236-15.057551-20.769036-6.230711-40.066931-12.201809-56.336009-17.653681-13.326798-4.240345-24.749768-8.221077-33.576608-11.336432-5.105721-12.201809-9.346066-25.009381-12.547959-38.076565-5.971098-22.153638-8.82684-45.518803-8.82684-69.403195V691.955041c9.086453-15.057551 19.038283-29.855489 30.115101-43.78805 20.163272-26.740134 43.268824-51.230288 68.278205-72.778163 0.865376-1.124989 1.990366-1.990366 2.855743-2.59613l0.259613-0.259613c8.82684-7.961464 17.913293-15.057551 27.60551-21.894025 1.124989-1.124989 2.249979-1.990366 3.374968-2.855742 4.586495-3.374968 9.346066-6.836474 14.538325-9.95183 40.672695-27.60551 85.585735-49.239922 133.700668-63.691709 45.518803-13.672949 93.547199-20.769036 143.652497-20.769036 99.258683 0 191.940505 29.336263 269.305164 79.355024 57.201386 36.691963 106.354771 85.066509 143.91211 141.662131 4.586495 6.576861 8.82684 13.067185 13.067185 19.90366 19.644046 33.316995 35.826587 69.143582 47.768782 106.700921 1.384602 4.240345 2.596129 8.567227 3.721119 13.067185 2.249979 7.701851 4.240345 15.663314 5.971098 23.624778 0.605764 1.990366 1.124989 3.980732 1.730753 6.230711 3.980732 17.913293 6.836474 36.691963 8.82684 55.470633v0.259612c1.817291 16.788304 2.682667 33.836221 2.682667 50.884138z m0 0" fill="#FF5722" p-id="21695"></path><path d="M873.119446 950.529536c0 9.95183-0.605764 20.769036-1.730753 31.586242-0.605764 5.105721-1.124989 10.211443-1.730753 15.057551-6.576861 3.115355-13.067185 5.971098-19.90366 8.567227-12.807572 4.846108-25.874757 8.82684-39.288092 11.682583-9.086453 1.990366-18.519057 3.721119-27.865123 4.586495h-0.259613c-8.82684-5.365334-19.038283-11.942196-29.595876-19.384433-19.038283-13.326798-38.941942-28.470887-54.86487-40.672695l-0.605763-0.605764c-16.788304-12.807572-28.730499-22.499789-28.730499-22.499789l-30.115102 1.12499-57.980225 2.076903-26.999747 1.12499-108.691287 3.980732-91.902983 3.374968c-5.971098 0.259613-13.067185 0.259613-21.894025 0h-0.259613c-11.942196-0.259613-26.13437-1.124989-41.797684-2.596129-18.172906-1.384602-38.076566-3.115355-58.326376-5.105722-19.644046-2.249979-39.547706-4.586495-58.585988-6.836474-21.028649-2.249979-40.932308-4.846108-58.066763-7.096087-13.326798-1.730753-25.009381-3.115355-34.441984-4.240345-7.961464-9.086453-15.057551-18.519057-21.894025-28.730499-10.211443-15.403702-19.038283-31.586242-25.874757-48.893772-5.105721-12.201809-9.346066-25.009381-12.547959-38.076566 8.221077-25.355531 19.038283-49.239922 31.845855-72.258937C61.223223 717.916336 73.165419 700.003042 86.319141 682.955125c12.89411-16.874842 26.826671-32.538156 41.884222-46.73033v-0.259613c4.240345-4.240345 8.567227-8.221077 12.807573-11.942195 7.961464-7.3557 16.18254-14.192174 24.749767-20.769036h0.259613c0.259613-0.605764 0.605764-0.605764 0.865377-0.865377 6.836474-5.365334 13.932561-10.211443 21.028648-15.057551 42.057297-28.730499 89.566467-50.105299 140.796755-62.56672 33.836221-8.221077 69.403194-12.807572 106.095158-12.807572 72.258937 0 140.537142 17.394067 200.507732 48.634159h0.259613c51.489901 26.480521 97.008704 62.826333 133.700668 106.700921 20.163272 23.365165 37.55734 48.893772 51.749514 75.980056 9.95183 18.172906 18.519057 37.297727 25.615144 56.595622 0.605764 1.730753 1.124989 3.115355 1.730753 4.586496 4.846108 14.192174 9.086453 28.990112 12.807572 43.78805 2.596129 10.557593 4.586495 21.374799 6.230711 32.105468 0.605764 3.374968 1.124989 6.576861 1.384602 9.951829 2.94228 19.557509 4.326882 39.720781 4.326883 60.230204z m0 0" fill="#FF6F00" p-id="21696"></path><path d="M814.79307 950.529536v2.855742c0 9.692217-0.865376 21.894025-1.730753 34.961211-0.865376 9.692217-1.730753 19.644046-2.596129 28.990112-9.086453 1.990366-18.519057 3.721119-27.865123 4.586495h-0.259613c-10.817206 1.384602-21.374799 1.990366-32.451618 1.990366h-49.759149l-10.817206-3.115355-56.076396-17.047917-56.855236-17.047917-131.710301-39.547705-56.855236-17.047917s-23.624778 9.346066-56.855235 20.509423h-0.259613c-12.807572 4.240345-26.740134 8.82684-41.538071 13.326798-18.519057 5.365334-38.076566 10.817206-57.460999 15.057551-19.903659 4.586495-39.547706 7.961464-57.201386 9.346066-5.365334 0.605764-10.817206 0.865376-15.663315 0.865376-15.922927-8.82684-31.326629-19.384433-45.25919-30.980478-12.201809-10.211443-23.624778-21.374799-34.095834-33.576608-7.961464-9.086453-15.057551-18.519057-21.894025-28.730499 1.990366-12.807572 4.240345-25.355531 7.701851-37.55734 8.567227-33.836221 21.894025-66.287839 39.547705-95.883715 9.692217-16.788304 20.509423-32.970844 32.970845-48.028395 0.259613-0.865376 1.124989-1.730753 1.990365-2.249979-0.259613-0.259613 0-0.259613 0-0.259613 3.721119-4.846108 7.701851-9.346066 11.682583-13.672949v-0.259613c11.682583-12.547959 23.624778-24.490155 36.691963-35.566973 4.586495-3.721119 8.82684-7.3557 13.672949-11.076819 0.865376-0.865376 1.730753-1.384602 2.855742-2.249979 64.03786-48.893772 143.91211-78.489648 230.103609-78.489648 97.874081 0 186.834784 36.691963 254.247612 97.008705 32.451618 29.336263 60.057128 64.297473 80.826164 103.239415 1.730753 2.855742 3.374968 5.971098 4.846109 9.086453 2.596129 5.105721 5.105721 10.557593 7.3557 16.18254 9.346066 20.509423 16.788304 42.057297 21.894025 64.297473 0.605764 2.249979 1.124989 4.586495 1.730753 6.836475 2.249979 10.557593 4.240345 21.374799 5.711485 32.105468 2.249979 16.701766 3.374968 33.836221 3.374968 51.14375z m0 0" fill="#FF9800" p-id="21697"></path><path d="M756.207082 950.529536c0 5.711485-0.259613 11.942196-0.605764 18.519057-0.605764 10.557593-1.384602 21.894025-2.855742 33.576608-0.605764 7.096087-1.730753 14.192174-2.855742 21.374799h-155.767769l-30.115101-4.846108-117.777741-18.77867-16.788304-2.59613-38.422716-6.23071c-16.788304 0-53.220654 7.3557-91.556832 14.538325-20.163272 3.721119-40.672695 7.701851-59.191752 10.211442-2.249979 0.259613-4.586495 0.605764-6.576861 0.865377h-0.259613c-19.903659-4.240345-39.288093-10.817206-57.460999-19.384434-5.711485-2.596129-11.336432-5.365334-17.047917-8.567227-15.922927-8.82684-31.326629-19.384433-45.259191-30.980478-0.259613-3.374968-0.605764-6.230711-0.605763-7.701851 0-7.3557 0.259613-14.538325 0.865376-21.634412 1.124989-18.172906 3.721119-35.826587 7.701851-52.874504 6.230711-25.874757 15.403702-50.884138 27.60551-73.98969 2.249979-4.846108 4.846108-9.692217 7.701851-14.192174 1.124989-2.249979 2.596129-4.240345 3.721119-6.576861 5.105721-8.221077 10.817206-16.18254 16.528691-24.144004 11.942196-15.663314 25.182456-30.288177 39.547705-43.788051h0.259613c1.124989-1.124989 2.249979-2.249979 3.374969-3.115355 1.384602-1.124989 2.596129-2.596129 3.980731-3.374968 5.711485-5.105721 11.336432-9.692217 17.394068-13.932562 0-0.259613 0.259613-0.259613 0.259613-0.259613 53.73988-40.066931 120.287332-63.69171 192.805882-63.691709 56.336009 0 108.604749 14.192174 154.469703 39.288092h0.259613c39.288093 21.634412 73.383926 50.884138 100.383673 86.191499 10.557593 13.672949 19.903659 28.124736 27.865123 43.528437h0.259613c1.384602 2.855742 2.855742 5.711485 4.240345 8.567227 8.567227 16.788304 15.403702 34.441984 20.509422 52.614891h0.259613c0.259613 1.384602 0.865376 2.855742 1.12499 4.240345 3.374968 12.201809 6.230711 24.749768 8.221076 37.557339 0.259613 2.596129 0.605764 5.365334 0.865377 7.961464 2.076904 13.499873 2.94228 27.432435 2.94228 41.624609z m0 0" fill="#FFC107" p-id="21698"></path><path d="M697.880706 947.414181c0 4.586495 0 9.346066-0.605763 13.932561v0.605764c-0.605764 20.509423-3.374968 40.672695-7.961464 58.845601 0 1.124989-0.259613 1.990366-0.865376 3.115355H555.699349l-109.470126-23.624778-14.538325-3.115355-2.249979 0.605763-121.498859 25.009381-5.365334 1.124989H294.874875c-18.172906 0-36.0862-1.730753-53.480267-5.105721-2.596129-0.605764-5.105721-1.124989-7.70185-1.730753h-0.259613c-19.903659-4.240345-39.288093-10.817206-57.460999-19.384433-0.605764-3.115355-1.124989-6.230711-1.384603-9.346066-1.990366-12.201809-2.855742-25.009381-2.855742-37.816953 0-4.846108 0-9.692217 0.259613-14.538325 0.865376-15.403702 3.115355-30.461252 6.576861-44.91304 2.249979-10.817206 5.365334-21.374799 9.086453-31.326629 3.115355-8.82684 6.836474-17.394067 10.817206-25.615144 3.374968-7.096087 7.3557-13.932561 11.336432-20.769036 3.980732-6.576861 8.221077-12.807572 12.807572-19.038282 11.336432-15.663314 24.749768-30.115102 39.547706-42.922674 8.567227-7.3557 17.913293-14.538325 27.60551-20.769036 41.538071-27.345897 91.29722-43.268824 145.0371-43.268824 10.557593 0 20.769036 0.605764 30.720865 1.990366h0.605764c30.461252 3.374968 58.845601 11.942196 85.066509 24.749767h0.259612c41.278459 20.163272 76.239669 50.624525 101.854813 88.181864 4.240345 6.230711 8.567227 13.067185 12.201809 19.90366 3.115355 5.365334 5.971098 11.076819 8.567227 16.788304 4.06727 8.999915 7.701851 18.259444 10.817206 27.60551h0.259613c3.115355 10.557593 5.971098 21.028649 7.961464 32.105467v0.259613c3.115355 15.749852 4.759571 31.932392 4.75957 48.461084z m0 0" fill="#FFD54F" p-id="21699"></path><path d="M639.294718 953.385278v0.865377c0 16.788304-1.990366 33.316995-5.971098 49.499535-1.384602 6.836474-3.374968 13.672949-5.971097 20.163272H499.969103l-65.162849-17.913293-65.16285 17.913293H294.874875c-18.172906 0-36.0862-1.730753-53.480267-5.105721-0.605764-0.865376-0.865376-1.730753-1.124989-2.596129-3.980732-12.201809-7.096087-24.490155-8.567227-37.297727-1.124989-8.221077-1.730753-16.788304-1.730753-25.615144 0-3.374968 0-7.096087 0.605763-10.557593 0.259613-13.326798 2.249979-26.480521 5.711485-38.941942 1.730753-8.48069 4.240345-16.788304 7.701851-24.749768 1.124989-3.980732 2.855742-7.701851 4.846108-11.336432 4.240345-9.692217 9.346066-19.038283 15.057551-28.124736 6.230711-9.086453 13.067185-17.65368 20.769036-25.615144 9.086453-10.211443 19.384433-19.644046 30.980478-27.345897 19.903659-14.538325 42.663061-25.355531 67.412829-31.326629 16.528691-4.586495 33.836221-6.836474 51.749514-6.836474 56.855235 0 107.825911 22.759402 144.777486 59.451365 1.384602 1.384602 3.115355 3.115355 4.586496 5.105721h0.259613c3.980732 4.240345 7.701851 8.567227 11.336432 13.326798 10.557593 13.326798 19.384433 27.865123 26.13437 43.78805 3.374968 7.3557 6.230711 15.057551 8.567227 23.019015 0.259613 1.124989 0.605764 1.990366 0.865376 3.115355 3.980732 13.932561 6.576861 28.470887 7.096088 43.528438 0.605764 4.499958 0.865376 8.999915 0.865376 13.58641z m0 0" fill="#FFE082" p-id="21700"></path><path d="M581.05488 953.385278c0 11.682583-1.384602 22.759402-4.586495 33.316995-2.855742 11.336432-7.096087 22.153638-12.547959 32.451619-0.865376 1.730753-2.855742 4.846108-2.855742 4.846108H308.547824c-0.259613-0.259613-0.605764-0.865376-0.605764-1.124989-3.374968-5.365334-6.230711-10.817206-8.567227-16.788304-5.711485-13.067185-9.086453-27.345897-10.211442-42.057298-0.605764-3.374968-0.605764-7.096087-0.605764-10.557593 0-1.730753 0-3.721119 0.259613-5.365334 0.259613-12.547959 1.990366-24.490155 5.365334-35.566974 2.855742-10.211443 6.576861-19.644046 11.336432-28.730499 0 0 0.259613-0.259613 0.259613-0.605764 3.374968-5.971098 7.096087-11.942196 11.336432-17.65368 13.932561-18.77867 32.451618-34.095834 53.73988-44.047664h0.259613c6.836474-3.374968 13.932561-6.230711 21.374799-8.221076h0.259613c13.067185-3.980732 27.345897-5.971098 41.797685-5.971098 16.788304 0 32.970844 2.596129 47.768782 7.961464 5.365334 1.384602 10.557593 3.721119 15.663314 6.23071h0.259613c24.490155 11.682583 45.25919 29.855489 59.451365 52.614891 2.855742 4.240345 5.365334 8.82684 7.701851 13.672949 1.124989 1.990366 2.249979 4.240345 3.115355 6.23071 6.576861 14.797938 10.557593 30.980478 11.682583 48.028395 0.259613 1.384602 0.259613 2.855742 0.259613 4.586496 0.605764 2.163441 0.605764 4.499958 0.605763 6.749936z m0 0" fill="#FFECB3" p-id="21701"></path><path d="M674.082853 865.809178H365.74921c-53.999493 0-104.450942-20.769036-142.09482-58.412913-37.643877-37.643877-58.412913-88.095327-58.412913-142.09482V356.967802c0-53.999493 20.769036-104.450942 58.412913-142.09482 37.643877-37.643877 88.095327-58.412913 142.09482-58.412913h308.333643c53.999493 0 104.450942 20.769036 142.09482 58.412913 37.643877 37.643877 58.412913 88.095327 58.412913 142.09482v308.333643c0 53.999493-20.769036 104.450942-58.412913 142.09482-37.643877 37.643877-88.181864 58.412913-142.09482 58.412913z m-308.333643-668.07065c-89.220316 0-159.229274 69.92242-159.229274 159.229274v308.333643c0 89.306854 69.92242 159.229274 159.229274 159.229274h308.333643c89.306854 0 159.229274-69.92242 159.229274-159.229274V356.967802c0-89.306854-69.92242-159.229274-159.229274-159.229274H365.74921z m0 0" fill="#FFFFFF" p-id="21702"></path><path d="M674.082853 305.564438c0 14.192174 11.509507 25.701682 25.701682 25.701682s25.701682-11.509507 25.701682-25.701682-11.509507-25.701682-25.701682-25.701681-25.701682 11.509507-25.701682 25.701681z m0 0M519.872763 685.897406c-96.402941 0-174.806051-78.40311-174.806051-174.806051s78.40311-174.806051 174.806051-174.806051 174.806051 78.40311 174.80605 174.806051-78.40311 174.806051-174.80605 174.806051z m0-308.333644c-73.643539 0-133.527592 59.884053-133.527593 133.527593 0 73.643539 59.884053 133.527592 133.527593 133.527592 73.643539 0 133.527592-59.884053 133.527592-133.527592 0-73.643539-59.884053-133.527592-133.527592-133.527593z m0 0" fill="#FFFFFF" p-id="21703"></path></svg>