<?xml version="1.0" encoding="utf-8"?>
<!-- Generator: Adobe Illustrator 22.1.0, SVG Export Plug-In . SVG Version: 6.00 Build 0)  -->
<svg version="1.1" id="图层_1" xmlns="http://www.w3.org/2000/svg" xmlns:xlink="http://www.w3.org/1999/xlink" x="0px" y="0px"
	 viewBox="0 0 26 26" style="enable-background:new 0 0 26 26;" xml:space="preserve">
<style type="text/css">
	.st0{fill:#191212;}
	.st1{opacity:0.94;fill:#FFFFFF;}
	.st2{fill:#F64B63;}
</style>
<g>
	<path class="st0" d="M54.8,9.1v14.5h-6.1V9.1h-4.6V3.3h15.3v5.9H54.8z"/>
	<path class="st0" d="M71.4,8.8v14.9h-6.1V3.3h7.8c2.4,0,4.2,0.6,5.5,1.8c1.5,1.3,2.2,3,2.2,5c0,2.1-0.9,3.8-2.7,5.2l3.5,8.4h-6.4
		l-2.9-6.6v-5.2h0.5c1.3,0,1.9-0.5,1.9-1.6c0-1-0.7-1.4-2.2-1.4H71.4z"/>
	<path class="st0" d="M94.7,13.4v5.4h-1.7v4.9h-6.1v-13c0-2.5,0.7-4.5,2.1-5.8s3.3-2.1,5.8-2.1c2.4,0,4.2,0.6,5.3,1.9
		c1.1,1.3,1.7,3.2,1.7,5.8v13.2h-6.1V10.9c0-0.8-0.1-1.3-0.3-1.7s-0.5-0.5-1-0.5c-0.9,0-1.4,0.7-1.4,2.1v2.5H94.7z"/>
	<path class="st0" d="M123.7,3.3l-8.9,21.5L106,3.3h7l1.9,6.4l2.1-6.4H123.7z"/>
	<path class="st0" d="M139.6,11.2v4.5h-4c-0.5,0-0.9,0.1-1.1,0.2c-0.2,0.2-0.3,0.4-0.3,0.8c0,0.4,0.1,0.7,0.3,0.8
		c0.2,0.1,0.7,0.2,1.4,0.2h4.1v5.8h-4.8c-2.2,0-4-0.5-5.1-1.6c-1.2-1.1-1.8-2.6-1.8-4.6v-8c0-2,0.6-3.5,1.7-4.5
		c1.1-1.1,2.7-1.6,4.7-1.6h5.3v5.9h-3.9c-1,0-1.6,0.3-1.6,1c0,0.4,0.1,0.7,0.4,0.8c0.2,0.2,0.7,0.2,1.3,0.2H139.6z"/>
	<path class="st0" d="M146.7,3.3h6.1v12.1c0,0.9,0.2,1.6,0.5,1.9s0.9,0.5,1.8,0.5h0.3v5.9h-1.6c-2.2,0-3.9-0.6-5.2-1.9
		s-1.9-3.1-1.9-5.4V3.3z"/>
</g>
<path class="st1" d="M23,22H3V3h20V22z"/>
<g>
	<path class="st2" d="M21,26H5c-2.8,0-5-2.3-5-5V5c0-2.8,2.3-5,5-5H21c2.8,0,5,2.3,5,5V21C26,23.7,23.7,26,21,26z M9.6,7.3
		C5.4,6.8,4,9.6,4,11.8c0,0.1,0,0.2,0,0.3l0,0.2c0,0,0,0.1,0.1,0.1c0.1,0.1,0.2,0,0.2,0c0-0.1,0.1-0.1,0.1-0.2
		c0.6-0.7,1.4-1.2,2.1-1.2c-0.2,0.8-0.5,2.7,0.7,4.5c0,0.1,0.1,0.1,0.1,0.1l0.1,0.1c0,0,0.1,0.1,0.1,0.1c0.1,0,0.3,0,0.3-0.2
		c0-0.1,0-0.1,0-0.2c0.6-2.3,1.4-3.5,3-4c0.8,1.1,2.4,4.9,0,8.4c0,0,0,0.1-0.1,0.1c-0.1,0.1-0.1,0.2-0.1,0.3c0,0.2,0.2,0.4,0.4,0.4
		h4.3l0,0l5.6,0c0.2,0,0.3,0,0.5-0.1c0.4-0.3,0.5-0.8,0.3-1.2L18,13.4c-0.1-0.1-0.2-0.2-0.3-0.3c-0.4-0.3-1-0.1-1.2,0.3l-1.4,2.2
		c-0.6-2.1-1.5-3.7-2.7-4.9c1.1-0.8,3.4-1,5.2,0c0.1,0,0.2,0.1,0.3,0.2L18,11c0.1,0,0.1,0.1,0.2,0c0.1,0,0.2-0.2,0.2-0.3
		c0-0.2-0.1-0.4-0.1-0.5c-0.6-2.4-2.1-3.7-4.5-3.8c0.4-0.8,0.9-1.2,1.5-1.4l0.1,0l0.1,0c0.1,0,0.1-0.1,0.1-0.1c0-0.1,0-0.2-0.1-0.2
		c-0.1,0-0.2-0.1-0.3-0.1C13.2,4.1,10.4,4.5,9.6,7.3L9.6,7.3z"/>
</g>
</svg>
